<?xml version="1.0" encoding="utf-8"?>
<!-- Generator: Adobe Illustrator 23.0.0, SVG Export Plug-In . SVG Version: 6.00 Build 0)  -->
<svg version="1.1" id="Layer_1" xmlns="http://www.w3.org/2000/svg" xmlns:xlink="http://www.w3.org/1999/xlink" x="0px" y="0px"
	 viewBox="0 0 476.7 301.9" style="enable-background:new 0 0 476.7 301.9;" xml:space="preserve">
<style type="text/css">
	.st0{opacity:0.6;}
	.st1{fill:url(#SVGID_1_);}
	.st2{fill:url(#SVGID_2_);}
	.st3{fill:url(#SVGID_3_);}
	.st4{fill:url(#SVGID_4_);}
	.st5{fill:url(#SVGID_5_);}
	.st6{fill:url(#SVGID_6_);}
	.st7{fill:url(#SVGID_7_);}
	.st8{fill:url(#SVGID_8_);}
	.st9{fill:url(#SVGID_9_);}
	.st10{fill:url(#SVGID_10_);}
	.st11{fill:#2B9BE0;}
	.st12{fill:#1388B7;}
	.st13{fill:#3BB5F2;}
	.st14{fill:#E7F3F7;}
</style>
<title>Asset 11</title>
<g>
	<g>
		<g id="Layer_1-2">
			<g class="st0">
				
					<linearGradient id="SVGID_1_" gradientUnits="userSpaceOnUse" x1="44.1" y1="546.7" x2="277.4" y2="546.7" gradientTransform="matrix(1 0 0 1 0 -418)">
					<stop  offset="0.42" style="stop-color:#BFE9F7"/>
					<stop  offset="0.61" style="stop-color:#7C99A7;stop-opacity:0.64"/>
					<stop  offset="0.8" style="stop-color:#3E4E5C;stop-opacity:0.3"/>
					<stop  offset="0.93" style="stop-color:#171E2C;stop-opacity:8.000000e-02"/>
					<stop  offset="1" style="stop-color:#080C1A;stop-opacity:0"/>
				</linearGradient>
				<polygon class="st1" points="277.4,257.4 44.1,0 62.5,52.2 267.7,257.4 				"/>
				
					<linearGradient id="SVGID_2_" gradientUnits="userSpaceOnUse" x1="70" y1="582.65" x2="254.3" y2="582.65" gradientTransform="matrix(1 0 0 1 0 -418)">
					<stop  offset="0.42" style="stop-color:#BFE9F7"/>
					<stop  offset="0.61" style="stop-color:#7C99A7;stop-opacity:0.64"/>
					<stop  offset="0.8" style="stop-color:#3E4E5C;stop-opacity:0.3"/>
					<stop  offset="0.93" style="stop-color:#171E2C;stop-opacity:8.000000e-02"/>
					<stop  offset="1" style="stop-color:#080C1A;stop-opacity:0"/>
				</linearGradient>
				<polygon class="st2" points="70,71.9 254.3,257.4 244.6,257.4 84.2,113.1 				"/>
				
					<linearGradient id="SVGID_3_" gradientUnits="userSpaceOnUse" x1="90.3" y1="611.8" x2="231.8" y2="611.8" gradientTransform="matrix(1 0 0 1 0 -418)">
					<stop  offset="0.42" style="stop-color:#BFE9F7"/>
					<stop  offset="0.61" style="stop-color:#7C99A7;stop-opacity:0.64"/>
					<stop  offset="0.8" style="stop-color:#3E4E5C;stop-opacity:0.3"/>
					<stop  offset="0.93" style="stop-color:#171E2C;stop-opacity:8.000000e-02"/>
					<stop  offset="1" style="stop-color:#080C1A;stop-opacity:0"/>
				</linearGradient>
				<polygon class="st3" points="90.3,130.2 231.8,257.4 222,257.4 102.5,164.8 				"/>
				
					<linearGradient id="SVGID_4_" gradientUnits="userSpaceOnUse" x1="110.3" y1="639.8" x2="208.9" y2="639.8" gradientTransform="matrix(1 0 0 1 0 -418)">
					<stop  offset="0.42" style="stop-color:#BFE9F7"/>
					<stop  offset="0.61" style="stop-color:#7C99A7;stop-opacity:0.64"/>
					<stop  offset="0.8" style="stop-color:#3E4E5C;stop-opacity:0.3"/>
					<stop  offset="0.93" style="stop-color:#171E2C;stop-opacity:8.000000e-02"/>
					<stop  offset="1" style="stop-color:#080C1A;stop-opacity:0"/>
				</linearGradient>
				<polygon class="st4" points="110.3,186.2 120.2,214.5 199.2,257.4 208.9,257.4 				"/>
				
					<linearGradient id="SVGID_5_" gradientUnits="userSpaceOnUse" x1="126.4" y1="662.5" x2="185.6" y2="662.5" gradientTransform="matrix(1 0 0 1 0 -418)">
					<stop  offset="0.42" style="stop-color:#BFE9F7"/>
					<stop  offset="0.61" style="stop-color:#7C99A7;stop-opacity:0.64"/>
					<stop  offset="0.8" style="stop-color:#3E4E5C;stop-opacity:0.3"/>
					<stop  offset="0.93" style="stop-color:#171E2C;stop-opacity:8.000000e-02"/>
					<stop  offset="1" style="stop-color:#080C1A;stop-opacity:0"/>
				</linearGradient>
				<polygon class="st5" points="126.4,231.6 185.6,257.4 135.6,257.4 				"/>
				
					<linearGradient id="SVGID_6_" gradientUnits="userSpaceOnUse" x1="-709.98" y1="546.7" x2="-476.68" y2="546.7" gradientTransform="matrix(-1 0 0 1 -277.38 -418)">
					<stop  offset="0.42" style="stop-color:#BFE9F7"/>
					<stop  offset="0.61" style="stop-color:#7C99A7;stop-opacity:0.64"/>
					<stop  offset="0.8" style="stop-color:#3E4E5C;stop-opacity:0.3"/>
					<stop  offset="0.93" style="stop-color:#171E2C;stop-opacity:8.000000e-02"/>
					<stop  offset="1" style="stop-color:#080C1A;stop-opacity:0"/>
				</linearGradient>
				<polygon class="st6" points="199.3,257.4 432.6,0 414.2,52.2 209,257.4 				"/>
				
					<linearGradient id="SVGID_7_" gradientUnits="userSpaceOnUse" x1="-684.08" y1="582.65" x2="-499.78" y2="582.65" gradientTransform="matrix(-1 0 0 1 -277.38 -418)">
					<stop  offset="0.42" style="stop-color:#BFE9F7"/>
					<stop  offset="0.61" style="stop-color:#7C99A7;stop-opacity:0.64"/>
					<stop  offset="0.8" style="stop-color:#3E4E5C;stop-opacity:0.3"/>
					<stop  offset="0.93" style="stop-color:#171E2C;stop-opacity:8.000000e-02"/>
					<stop  offset="1" style="stop-color:#080C1A;stop-opacity:0"/>
				</linearGradient>
				<polygon class="st7" points="406.7,71.9 222.4,257.4 232.1,257.4 392.5,113.1 				"/>
				
					<linearGradient id="SVGID_8_" gradientUnits="userSpaceOnUse" x1="-663.78" y1="611.8" x2="-522.38" y2="611.8" gradientTransform="matrix(-1 0 0 1 -277.38 -418)">
					<stop  offset="0.42" style="stop-color:#BFE9F7"/>
					<stop  offset="0.61" style="stop-color:#7C99A7;stop-opacity:0.64"/>
					<stop  offset="0.8" style="stop-color:#3E4E5C;stop-opacity:0.3"/>
					<stop  offset="0.93" style="stop-color:#171E2C;stop-opacity:8.000000e-02"/>
					<stop  offset="1" style="stop-color:#080C1A;stop-opacity:0"/>
				</linearGradient>
				<polygon class="st8" points="386.4,130.2 245,257.4 254.7,257.4 374.3,164.8 				"/>
				
					<linearGradient id="SVGID_9_" gradientUnits="userSpaceOnUse" x1="-643.88" y1="639.8" x2="-545.18" y2="639.8" gradientTransform="matrix(-1 0 0 1 -277.38 -418)">
					<stop  offset="0.42" style="stop-color:#BFE9F7"/>
					<stop  offset="0.61" style="stop-color:#7C99A7;stop-opacity:0.64"/>
					<stop  offset="0.8" style="stop-color:#3E4E5C;stop-opacity:0.3"/>
					<stop  offset="0.93" style="stop-color:#171E2C;stop-opacity:8.000000e-02"/>
					<stop  offset="1" style="stop-color:#080C1A;stop-opacity:0"/>
				</linearGradient>
				<polygon class="st9" points="366.5,186.2 356.6,214.5 277.5,257.4 267.8,257.4 				"/>
				
					<linearGradient id="SVGID_10_" gradientUnits="userSpaceOnUse" x1="-627.68" y1="662.5" x2="-568.48" y2="662.5" gradientTransform="matrix(-1 0 0 1 -277.38 -418)">
					<stop  offset="0.42" style="stop-color:#BFE9F7"/>
					<stop  offset="0.61" style="stop-color:#7C99A7;stop-opacity:0.64"/>
					<stop  offset="0.8" style="stop-color:#3E4E5C;stop-opacity:0.3"/>
					<stop  offset="0.93" style="stop-color:#171E2C;stop-opacity:8.000000e-02"/>
					<stop  offset="1" style="stop-color:#080C1A;stop-opacity:0"/>
				</linearGradient>
				<polygon class="st10" points="350.3,231.6 291.1,257.4 341.1,257.4 				"/>
			</g>
			<polygon class="st11" points="152.6,257.4 15.6,301.9 42.5,256.6 0,230.6 137.8,181.3 			"/>
			<polygon class="st11" points="324.1,257.4 461.1,301.9 434.3,256.6 476.7,230.6 338.9,181.3 			"/>
			<path class="st12" d="M324.1,257.4l70.4-9.6c0,0-61.4-30-62.7-29.7S324.1,257.4,324.1,257.4z"/>
			<path class="st12" d="M152.6,257.4l-70.4-9.6c0,0,61.4-30,62.7-29.7S152.6,257.4,152.6,257.4z"/>
			<path class="st13" d="M236.6,218.8c-61.1-0.3-90.2,8.1-154.5,28.7L65,158c66-24.6,105.5-34.2,172.5-33.9s106.6,8.6,172.7,33.9
				l-15.6,89.5C329.8,225.5,298.8,219.2,236.6,218.8z"/>
		</g>
	</g>
</g>
<polygon class="st14" points="238.4,16.7 267.1,75 331.5,84.3 284.9,129.7 295.9,193.8 238.4,163.5 180.8,193.8 191.8,129.7 
	145.2,84.3 209.6,75 "/>
</svg>
